<?xml version="1.0" encoding="UTF-8"?>
<svg id="Layer_1" data-name="Layer 1" xmlns="http://www.w3.org/2000/svg" viewBox="0 0 9.81 9.39">
  <defs>
    <style>
      .cls-1 {
        fill: #fff;
      }

      .cls-2 {
        fill: #825c24;
      }

      .cls-3 {
        fill: #262722;
      }
    </style>
  </defs>
  <ellipse class="cls-1" cx="4.9" cy="4.7" rx="4.9" ry="4.7"/>
  <g>
    <path class="cls-3" d="m6.55,5.78v1.4s.05,0,.08,0v-1.41s-.05,0-.08,0Zm-.16-.08v1.49s.05,0,.07,0v-1.49s-.05,0-.07,0Zm-.17-.08v1.58s.05,0,.07,0v-1.58s-.05,0-.07,0Zm-.18-.12v1.7s.05,0,.07,0v-1.7s-.05,0-.07,0Zm-.17,1.66v.04s.05,0,.07,0v-.04s-.05,0-.07,0Zm0-1.81v.03s.05,0,.07,0v-.03s-.05,0-.07,0Zm-.46,1.79V1.88h-.02v5.25s.08.01.11.02h0s-.06-.01-.09-.02Zm-.35-.03V2.03h0v5.13s.06,0,.1,0v-.04s-.06,0-.09,0Zm-.22-6.74v1.41s.05,0,.07,0V.37s-.05,0-.07,0Zm-.08,6.75V2.21h0v4.94s.06,0,.09,0v-.04s-.05,0-.08,0Zm-.1-6.67v1.47s.05,0,.07,0V.45s-.05,0-.07,0Zm-.18.09v1.52s.05,0,.07,0V.54s-.05,0-.07,0Zm-.05,6.57v.05s.06,0,.09,0v-.05s-.06,0-.09,0Zm-.14-6.45v1.49s.05,0,.07,0V.66s-.05,0-.07,0Zm-.14,1.93v4.54s-.05,0-.07,0V2.59s.04,0,.05,0c-.02,0-.04,0-.06,0v4.57s.07,0,.11,0V2.59s-.02,0-.03,0Zm-.04-1.74v1.41s.05,0,.08,0V.86s-.05,0-.08,0Zm-.18.17v1.35s.05,0,.08,0v-1.34s-.05,0-.08,0Zm-.18.19v1.26h.07v-1.25s-.05,0-.07,0Zm.07,1.63v-.05s-.07,0-.1,0v4.38h.1v-.02h-.1V2.83s.06,0,.1,0Zm-.41.08v.1s.06,0,.09,0v4.14s0,0,0,0V2.92s-.06,0-.09,0Zm-.3.25v3.99h0v-3.89s.06,0,.09,0v-.1s-.06,0-.09,0Z"/>
    <path class="cls-3" d="m3.2,7.16h-.09s0,0,0,0v-3.99s.06,0,.09,0v.1h0v3.89Zm.29,0s0,0,0,0h0s-.09,0-.09,0V3.02h0v-.1s.06,0,.09,0v4.24Zm.25-5.95s.05,0,.07,0v1.24h-.07s0-1.25,0-1.25Zm.08,5.94h0v.02h-.1V2.78s.07,0,.1,0v.05h0v4.31Zm.18-4.78s-.05,0-.08,0v-1.35s.05,0,.08,0v1.34Zm.18,4.8s-.07,0-.11,0V2.59s.04,0,.06,0c0,0,.01,0,.02,0h0s.02,0,.03,0v4.57Zm0-4.9s-.05,0-.08,0V.85s.05,0,.08,0v1.4Zm.18-.11s-.05,0-.07,0V.66s.05,0,.07,0v1.49Zm.16,4.96h0v.05s-.06,0-.09,0v-.05s-.01,0-.02,0V2.42h.02s.06,0,.09,0h0v4.69Zm.02-5.05s-.05,0-.07,0V.54s.05,0,.07,0v1.52Zm.18-.14s-.05,0-.07,0V.45s.05,0,.07,0v1.47Zm.11,5.19s0,0,0,0v.04s-.06,0-.09,0V2.21h0s.06,0,.09,0v4.9Zm.07-5.34s-.05,0-.07,0V.37s.05,0,.07,0v1.41Zm.25,5.34h0v.04s-.06,0-.1,0V2.03h0s.03,0,.05,0c.02,0,.03,0,.04,0h0v5.09Zm.35.04s0,0,0,0h0s-.07-.01-.11-.02V1.88h.12v5.27Zm.43.03s-.05,0-.07,0v-1.84s.05,0,.07,0v1.84Zm.17,0s-.05,0-.07,0v-1.7s.05,0,.07,0v1.7Zm.18,0s-.05,0-.07,0v-1.58s.05,0,.07,0v1.58Zm.17,0s-.05,0-.07,0v-1.49s.05,0,.07,0v1.49Zm.17,0s-.05,0-.08,0v-1.4s.05,0,.08,0v1.41Zm.17,0s-.05,0-.08,0v-1.34s.05,0,.08,0v1.35Zm.13,0h-.07v-1.25s.05,0,.07,0v1.26Z"/>
    <path class="cls-3" d="m8.03,8c-2.15-.71-4.21-.64-6.28-.17-.03,0-.07-.01-.07-.05,0,0,0,0,0,0,0-.03.01-.06.04-.07.26-.09.52-.2.79-.24.3-.05.35-.19.35-.46,0-1.18.02-2.36.02-3.54,0-.29.07-.48.35-.63.15-.09.21-.34.3-.53.03-.05,0-.13,0-.19,0-1.17.21-1.48,1.41-1.87.04-.01.08.02.08.06v1.34s.05.07.09.06c.17-.08.32-.14.51-.23.04-.02.09.01.09.06,0,.46,0,.89,0,1.31h0s.03,1.44.03,1.44v.42s0,0,.01,0c0,.03.01.07.02.1,0,0,0,0,0,.01.04.08.09.15.14.22.24.3.6.52.98.72.36.18.54.39.47.79-.01.06,0,.13,0,.2-.07.54-.01,1.01.67,1.1.02,0,.03.02.06.06.04.05-.01.11-.07.09Z"/>
    <g>
      <path class="cls-2" d="m5.93,5.35v1.84s-.05,0-.07,0v-1.84s.05,0,.07,0Z"/>
      <path class="cls-2" d="m6.1,5.49v1.7s-.05,0-.07,0v-1.7s.05,0,.07,0Z"/>
      <path class="cls-2" d="m6.29,5.61v1.58s-.05,0-.07,0v-1.58s.05,0,.07,0Z"/>
      <path class="cls-2" d="m6.46,5.7v1.49s-.05,0-.07,0v-1.49s.05,0,.07,0Z"/>
      <path class="cls-2" d="m6.79,5.84v1.35s-.05,0-.08,0v-1.34s.05,0,.08,0Z"/>
      <path class="cls-2" d="m6.92,5.94v1.26h-.07v-1.25s.05,0,.07,0Z"/>
      <path class="cls-2" d="m6.55,5.78v1.4s.05,0,.08,0v-1.41s-.05,0-.08,0Z"/>
    </g>
    <path class="cls-2" d="m4.9.37v1.41s-.05,0-.07,0V.37s.05,0,.07,0Z"/>
    <path class="cls-2" d="m4.72.45v1.47s-.05,0-.07,0V.45s.05,0,.07,0Z"/>
    <path class="cls-2" d="m4.54.54v1.52s-.05,0-.07,0V.54s.05,0,.07,0Z"/>
    <path class="cls-2" d="m4.36.66v1.49s-.05,0-.07,0V.66s.05,0,.07,0Z"/>
    <path class="cls-2" d="m4,1.02v1.34s-.05,0-.08,0v-1.35s.05,0,.08,0Z"/>
    <path class="cls-2" d="m3.82,1.21v1.24h-.07s0-1.25,0-1.25c.03,0,.05,0,.07,0Z"/>
    <path class="cls-2" d="m4.11.85v1.41s.05,0,.08,0V.86s-.05,0-.08,0Z"/>
    <path class="cls-1" d="m4.18,2.59v4.57s-.07,0-.11,0V2.59s.04,0,.06,0h.02s.02,0,.03,0Z"/>
    <path class="cls-1" d="m3.49,2.92v4.24s0,0,0,0c-.03,0-.06,0-.09,0V2.91s.06,0,.09,0Z"/>
    <path class="cls-1" d="m3.2,3.17v3.99s-.06,0-.09,0h0v-3.99s.06,0,.09,0Z"/>
    <path class="cls-1" d="m3.81,2.78v4.38h-.1V2.78s.07,0,.1,0Z"/>
    <path class="cls-1" d="m5.15,2.03v5.13s-.06,0-.1,0V2.03h0s.03,0,.05,0c.02,0,.03,0,.04,0Z"/>
    <path class="cls-1" d="m5.5,1.88v5.27h0s-.07-.01-.11-.02V1.88h.11Z"/>
    <path class="cls-1" d="m4.83,2.21v4.94s-.06,0-.09,0V2.21h0s.05,0,.08,0Z"/>
    <path class="cls-1" d="m4.51,2.42v4.74s-.06,0-.09,0V2.42s.06,0,.09,0Z"/>
  </g>
</svg>